<?xml version="1.0" standalone="no"?><!DOCTYPE svg PUBLIC "-//W3C//DTD SVG 1.1//EN" "http://www.w3.org/Graphics/SVG/1.1/DTD/svg11.dtd"><svg t="1568193960884" class="icon" viewBox="0 0 2018 1024" version="1.1" xmlns="http://www.w3.org/2000/svg" p-id="17348" xmlns:xlink="http://www.w3.org/1999/xlink" width="394.140625" height="200"><defs><style type="text/css"></style></defs><path d="M12.127086 1017.4464C12.127086 460.668343 461.136457 9.479314 1015.237486 9.479314s1003.1104 451.189029 1003.1104 1007.967086" fill="#FFD7D7" p-id="17349"></path><path d="M166.107429 1020.957257c0-473.278171 381.264457-856.400457 852.2752-856.400457 471.010743 0 852.2752 383.122286 852.2752 856.400457" fill="#FFAEAE" p-id="17350"></path><path d="M341.372343 1020.957257c0-375.3984 302.723657-680.623543 677.361371-680.623543 373.599086 0 677.346743 304.171886 677.346743 680.623543M248.159086 578.896457l26.536228 26.667886c2.091886 2.106514 2.091886 5.602743 0 6.656-2.106514 2.106514-5.588114 2.106514-6.641371 0L241.517714 585.581714c-2.091886-2.106514-2.091886-5.617371 0-6.670628 2.091886-2.4576 4.534857-2.4576 6.641372 0z m42.247314 43.154286l26.536229 26.667886c2.091886 2.106514 2.091886 5.602743 0 6.656-2.106514 2.106514-5.588114 2.106514-6.641372 0l-26.536228-26.653258c-2.091886-2.106514-2.091886-5.617371 0-6.670628 1.053257-1.053257 4.1984-1.053257 6.641371 0z m-49.927314 25.6l26.536228-26.653257c2.091886-2.106514 5.573486-2.106514 6.626743 0 2.091886 2.106514 2.091886 4.564114 0 6.670628l-26.536228 26.653257c-2.091886 2.106514-5.588114 2.106514-6.626743 0-2.4576-1.053257-2.4576-4.1984 0-6.656-1.053257 0 0 0 0 0z m43.300571-41.033143l26.5216-26.667886c2.091886-2.106514 5.588114-2.106514 6.641372 0 2.091886 2.106514 2.091886 4.564114 0 6.670629l-26.536229 26.653257c-2.091886 2.106514-5.588114 2.106514-6.641371 0-2.442971-1.053257-2.442971-4.549486 0-6.656-1.389714 0-1.389714 0 0 0z m1342.142172-492.2368l35.605942 35.796114c2.106514 2.106514 2.106514 6.656 0 8.777143-2.091886 2.091886-6.626743 2.091886-8.718628 0l-35.620572-35.796114c-2.091886-2.106514-2.091886-6.670629 0-8.777143 2.091886-2.442971 6.641371-2.442971 8.733258 0z m56.554057 57.899886l35.6352 35.4304c2.091886 2.106514 2.091886 6.670629 0 8.777143-2.091886 2.106514-6.641371 2.106514-8.733257 0l-35.605943-35.796115c-2.106514-2.106514-2.106514-6.656 0-8.777143 2.091886-2.091886 5.573486-2.091886 8.718628 0.365715z m-67.730286 34.377143l35.605943-35.781486c2.091886-2.106514 6.626743-2.106514 8.733257 0 2.091886 2.106514 2.091886 6.656 0 8.777143l-35.254857 36.132571c-2.106514 2.091886-6.641371 2.091886-8.747886 0a6.977829 6.977829 0 0 1-0.336457-9.128228z m57.9584-55.778743l35.254857-35.445029c2.091886-2.106514 6.626743-2.106514 8.733257 0 2.091886 2.106514 2.091886 6.670629 0 8.777143l-35.620571 35.781486c-2.091886 2.106514-6.626743 2.106514-8.733257 0-2.091886-1.053257-2.091886-5.617371 0.351085-9.1136 0 1.404343 0 0 0 0z m223.802514 623.791543l20.948115 21.050514c1.038629 1.053257 1.038629 4.549486 0 5.602743-1.053257 1.053257-4.534857 1.053257-5.588115 0l-20.948114-21.050515c-1.053257-1.053257-1.053257-4.549486 0-5.602742 2.091886-1.053257 4.534857-1.053257 5.588114 0z m33.162972 34.728228l20.948114 21.050514c1.053257 1.053257 1.053257 4.564114 0 5.617372-1.038629 1.053257-4.534857 1.053257-5.588114 0l-20.948115-21.065143c-1.038629-1.038629-1.038629-4.549486 0-5.602743 1.053257-1.053257 3.496229-1.053257 5.588115 0z m-39.789715 19.997257l20.933486-19.997257c1.053257-1.053257 4.534857-1.053257 5.588114 0 1.053257 1.053257 1.053257 3.510857 0 5.617372l-20.948114 19.997257c-1.038629 1.053257-4.534857 1.053257-5.588114 0-1.038629-2.4576-1.038629-4.564114 0-5.617372z m34.2016-32.270628l20.948115-19.997257c1.053257-1.053257 4.534857-1.053257 5.588114 0 1.053257 1.038629 1.053257 4.549486 0 5.602742l-20.948114 19.997258c-1.038629 1.053257-4.534857 1.053257-5.588115 0-2.091886-2.4576-2.091886-4.549486 0-5.602743-1.038629 0 0 0 0 0z" fill="#FB7272" p-id="17351"></path><path d="M1121.3824 318.229943l269.546057 156.116114c15.023543 8.777143 19.894857 27.721143 11.527314 42.8032L1198.8992 871.848229a31.261257 31.261257 0 0 1-42.5984 11.5712L886.754743 727.303314a31.568457 31.568457 0 0 1-11.512686-42.8032l203.556572-354.698971c8.718629-15.082057 27.574857-20.333714 42.583771-11.5712z" fill="#FFFFFF" p-id="17352"></path><path d="M1231.711086 603.808914a88.970971 88.970971 0 0 1-99.503543-6.670628 90.477714 90.477714 0 0 1-32.124343-94.72c9.4208-35.079314 39.102171-61.396114 75.0592-65.960229a89.248914 89.248914 0 0 1 89.380571 44.207543c24.795429 43.154286 10.1376 98.230857-32.811885 123.143314z m-102.999772-44.207543c16.413257 28.423314 50.980571 41.047771 81.700572 29.476572l-66.340572-115.419429c-25.131886 21.035886-31.773257 57.519543-15.36 85.942857z m34.9184-97.1776l66.340572 115.419429a68.066743 68.066743 0 0 0 15.36-85.957486 67.554743 67.554743 0 0 0-81.700572-29.461943z" fill="#FB7272" p-id="17353"></path><path d="M607.4368 426.627657l323.657143-187.684571a38.107429 38.107429 0 0 1 28.277028-3.861943c9.435429 2.4576 17.802971 8.777143 22.703543 17.539657l244.736 425.910857a37.449143 37.449143 0 0 1-13.604571 51.229257L889.563429 917.445486a38.107429 38.107429 0 0 1-28.291658 3.876571 36.746971 36.746971 0 0 1-22.688914-17.554286L593.8176 477.856914a37.449143 37.449143 0 0 1 13.604571-51.229257z" fill="#FFFFFF" p-id="17354"></path><path d="M1344.131657 335.418514a22.674286 22.674286 0 0 0-18.505143-18.944c-10.474057-2.106514-10.474057-4.213029 0-6.319543 9.771886-1.404343 17.115429-9.128229 18.856229-18.592914 2.091886-10.532571 4.183771-10.532571 6.290286 0a22.674286 22.674286 0 0 0 18.505142 18.944c10.474057 2.106514 10.474057 4.213029 0 6.319543-9.786514 1.404343-17.115429 9.1136-18.870857 18.578286-2.077257 10.532571-4.183771 10.181486-6.275657 0z" fill="#E6E6E6" p-id="17355"></path><path d="M564.136229 738.172343c4.183771-22.805943-3.145143-40.696686-22.001372-53.686857-19.192686-12.960914-17.451886-17.173943 5.237029-12.960915 22.703543 4.1984 40.155429-3.159771 53.072457-22.103771 12.917029-19.309714 17.115429-17.554286 12.917028 5.266286-4.183771 22.791314 3.145143 40.682057 22.001372 53.672228 19.207314 12.975543 17.451886 17.188571-5.237029 12.975543-22.688914-4.213029-40.155429 3.159771-53.072457 22.103772s-17.115429 17.188571-12.917028-5.266286z" fill="#FFFFFF" p-id="17356"></path><path d="M1450.627657 744.155429c-7.328914-11.936914-21.650286-17.905371-34.9184-14.394515-14.657829 3.159771-16.062171 0-3.496228-8.426057a32.431543 32.431543 0 0 0 14.321371-35.4304c-2.794057-15.082057 0-16.135314 8.382171-3.510857 7.314286 11.922286 21.650286 17.890743 34.903772 14.379886 14.672457-3.145143 16.062171 0 3.510857 8.426057a32.431543 32.431543 0 0 0-14.336 35.4304c3.145143 14.7456 0.351086 16.135314-8.367543 3.510857z" fill="#E6E6E6" p-id="17357"></path><path d="M826.002286 546.274743a49.269029 49.269029 0 0 0 43.637028 23.157028c17.8176-0.702171 33.528686-10.883657 41.896229-26.667885a49.152 49.152 0 0 0-2.091886-49.473829c-14.657829-23.157029-45.041371-30.164114-68.081371-15.433143a49.664 49.664 0 0 0-15.36 68.417829z m57.256228 139.629714a10.166857 10.166857 0 0 1-8.382171 1.404343c-2.779429-0.702171-5.588114-2.4576-6.977829-4.9152l-6.977828-11.220114c-25.4976-40.696686-0.351086-73.333029 40.1408-98.947657 40.521143-25.6 80.661943-34.377143 106.144914 5.968457l6.992457 11.234743c1.7408 2.442971 2.091886 5.602743 1.389714 8.411428-0.702171 2.808686-2.442971 5.617371-4.885942 7.021714l-127.444115 81.042286z" fill="#FB7272" p-id="17358"></path></svg>