<?xml version="1.0" standalone="no"?><!DOCTYPE svg PUBLIC "-//W3C//DTD SVG 1.1//EN" "http://www.w3.org/Graphics/SVG/1.1/DTD/svg11.dtd"><svg t="1567498834320" class="icon" viewBox="0 0 1024 1024" version="1.1" xmlns="http://www.w3.org/2000/svg" p-id="12162" xmlns:xlink="http://www.w3.org/1999/xlink" width="200" height="200"><defs><style type="text/css"></style></defs><path d="M838.144 803.328V223.232c0-52.736-10.24-64.512-62.976-64.512H62.976C10.752 158.72 0 167.936 0 223.232v580.096c0 54.272 10.752 64.512 62.976 64.512h712.192c52.224 0 62.976-10.24 62.976-64.512z m-209.92-530.432c42.496 0 76.8 35.84 76.8 79.36s-34.816 79.36-76.8 79.36c-42.496 0-76.8-35.84-76.8-79.36 0-44.544 34.304-79.36 76.8-79.36zM98.816 716.8C168.96 611.84 292.864 437.76 324.608 437.76c30.208 0 134.144 140.8 181.76 190.464 0 0 60.416-82.944 91.648-82.944 31.744 0 139.776 171.008 140.8 171.52h-640zM270.336 95.744c-40.448-7.68-56.832-4.608-66.56 24.064h189.44l-122.88-24.064z" p-id="12163" fill="#9db9f7"></path><path d="M970.24 232.448l-95.744-18.432V803.84c0 27.136-1.536 57.344-22.528 78.336-19.968 19.968-49.664 21.504-75.264 21.504h-58.368l122.88 24.064c50.688 10.24 63.488 2.56 73.728-51.2l105.472-570.368c9.728-50.688 1.536-64-50.176-73.728z" p-id="12164" fill="#9db9f7"></path></svg>