<?xml version="1.0" standalone="no"?><!DOCTYPE svg PUBLIC "-//W3C//DTD SVG 1.1//EN" "http://www.w3.org/Graphics/SVG/1.1/DTD/svg11.dtd"><svg t="1574645153059" class="icon" viewBox="0 0 1024 1024" version="1.1" xmlns="http://www.w3.org/2000/svg" p-id="3083" xmlns:xlink="http://www.w3.org/1999/xlink" width="200" height="200"><defs><style type="text/css"></style></defs><path d="M512 51.643733c197.393067 0 358.4 160.5632 358.4 357.512534 0 64.170667-17.237333 126.429867-49.698133 181.179733-13.9264 23.517867-61.678933 91.2384-133.597867 190.5664l-3.925333 5.461333a28954.555733 28954.555733 0 0 1-128.512 175.854934c-5.802667 7.850667-9.898667 13.4144-10.786134 14.336-6.178133 11.4688-18.773333 19.012267-31.880533 19.012266-13.346133 0-26.043733-7.338667-30.549333-16.964266a17060.386133 17060.386133 0 0 1-43.963734-59.665067 27635.473067 27635.473067 0 0 1-96.631466-132.437333l-4.130134-5.666134c-71.850667-99.157333-119.5008-166.843733-133.393066-190.498133A354.5088 354.5088 0 0 1 153.6 409.156267C153.6 212.0704 314.299733 51.643733 512 51.643733z" fill="#7A5294" p-id="3084"></path><path d="M512 85.777067c-178.858667 0-324.266667 145.169067-324.266667 323.3792 0 57.992533 15.598933 114.244267 44.987734 163.84 13.073067 22.289067 60.757333 90.0096 131.618133 187.8016l4.130133 5.700266a27602.432 27602.432 0 0 0 128.341334 175.479467c5.802667 7.850667 9.898667 13.380267 13.6192 18.875733 2.116267 0.580267 3.1744-0.068267 4.676266-2.525866a17873.988267 17873.988267 0 0 0 43.895467-59.665067 28921.412267 28921.412267 0 0 0 96.529067-132.334933l3.925333-5.461334c70.997333-97.962667 118.749867-165.751467 131.857067-187.938133a320.375467 320.375467 0 0 0 44.9536-163.771733c0-178.0736-145.7152-323.3792-324.266667-323.3792z" fill="#9C6CBB" p-id="3085"></path><path d="M677.205333 502.237867a13.312 13.312 0 0 0-18.8416 2.833066c-0.170667 0.170667-12.970667 16.759467-37.853866 20.48l48.059733-123.392a13.858133 13.858133 0 0 0-8.192-18.090666l-141.1072-49.015467c-0.375467-0.136533-0.750933-0.170667-1.1264-0.238933a8.192 8.192 0 0 0-1.6384-0.341334c-0.546133-0.1024-1.092267-0.034133-1.604267-0.034133h-1.570133l-1.706667 0.375467c-0.341333 0.068267-0.750933 0.1024-1.092266 0.238933l-141.1072 49.0496a13.550933 13.550933 0 0 0-7.850667 7.236267 13.994667 13.994667 0 0 0-0.341333 10.820266l45.909333 117.896534a83.797333 83.797333 0 0 1-42.666667-21.060267 13.380267 13.380267 0 0 0-19.0464-0.2048 13.9264 13.9264 0 0 0-0.273066 19.421867c1.160533 1.194667 29.013333 29.764267 72.977066 30.276266 21.777067 0.3072 38.468267-4.266667 53.111467-8.260266 12.9024-3.549867 23.995733-6.5536 36.693333-5.802667 14.779733 0.8192 28.2624 4.676267 42.564267 8.772267 18.090667 5.154133 36.864 10.581333 60.040533 10.581333 45.329067 0 68.5056-31.061333 69.495467-32.3584a13.994667 13.994667 0 0 0-2.798933-19.182933z m-94.0032-249.582934v18.295467h-136.635733v-18.295467A13.653333 13.653333 0 0 1 460.049067 238.933333h109.636266a13.653333 13.653333 0 0 1 13.5168 13.7216z m-74.3424 63.6928c-0.341333 0.136533-0.7168 0.136533-1.1264 0.238934l-113.800533 40.448V292.625067c0-7.953067 6.212267-14.4384 13.858133-14.4384h208.896c7.611733 0 13.858133 6.485333 13.858134 14.4384v64.4096l-113.834667-40.448-1.160533-0.238934c-0.546133-0.136533-1.092267-0.273067-1.706667-0.341333-0.546133-0.1024-1.092267-0.068267-1.6384-0.068267s-1.024-0.034133-1.604267 0.034134-1.1264 0.2048-1.706666 0.375466z" fill="#FFFFFF" p-id="3086"></path></svg>